<?xml version="1.0" encoding="UTF-8"?>
<!DOCTYPE svg PUBLIC "-//W3C//DTD SVG 1.1//EN" "http://www.w3.org/Graphics/SVG/1.1/DTD/svg11.dtd">
<svg xmlns="http://www.w3.org/2000/svg" version="1.1" width="2160px" height="2160px" style="shape-rendering:geometricPrecision; text-rendering:geometricPrecision; image-rendering:optimizeQuality; fill-rule:evenodd; clip-rule:evenodd" xmlns:xlink="http://www.w3.org/1999/xlink">
<g><path style="opacity:0.999" fill="#005983" d="M 1032.5,7.5 C 1308.86,-1.10584 1553.53,81.3942 1766.5,255C 1975.97,433.351 2101.14,659.518 2142,933.5C 2176.2,1208.69 2115.86,1460.69 1961,1689.5C 1816.14,1894.27 1623.3,2033.43 1382.5,2107C 1209.15,2156.42 1034.15,2163.09 857.5,2127C 602.399,2069.94 394.232,1939.44 233,1735.5C 59.7571,1506.28 -12.9096,1247.95 15,960.5C 42.0118,730.888 132.012,530.555 285,359.5C 486.368,142.586 735.534,25.2525 1032.5,7.5 Z"/></g>
<g><path style="opacity:1" fill="#f0f1f1" d="M 664.5,488.5 C 699.757,485.65 732.757,492.817 763.5,510C 806.239,540.332 825.073,581.832 820,634.5C 810.166,690.67 777.666,726.17 722.5,741C 690.099,748.087 658.099,746.754 626.5,737C 572.774,715.236 544.774,675.236 542.5,617C 545.107,555.073 575.773,514.406 634.5,495C 644.583,492.593 654.583,490.426 664.5,488.5 Z"/></g>
<g><path style="opacity:1" fill="#f0f1f1" d="M 1384.5,829.5 C 1433.07,826.129 1480.07,832.963 1525.5,850C 1591.04,877.869 1637.54,924.702 1665,990.5C 1683.05,1035.72 1693.05,1082.72 1695,1131.5C 1695.5,1284.5 1695.67,1437.5 1695.5,1590.5C 1613.17,1590.5 1530.83,1590.5 1448.5,1590.5C 1448.67,1451.5 1448.5,1312.5 1448,1173.5C 1446.98,1142.07 1439.98,1112.07 1427,1083.5C 1404.34,1043.57 1369.84,1023.91 1323.5,1024.5C 1272.84,1026.07 1234.34,1048.41 1208,1091.5C 1196.66,1109.54 1190.32,1129.2 1189,1150.5C 1188.5,1297.17 1188.33,1443.83 1188.5,1590.5C 1106.17,1590.5 1023.83,1590.5 941.5,1590.5C 942.453,1342.5 942.453,1094.5 941.5,846.5C 1023.83,846.5 1106.17,846.5 1188.5,846.5C 1188.33,881.502 1188.5,916.502 1189,951.5C 1233.66,878.24 1298.83,837.573 1384.5,829.5 Z"/></g>
<g><path style="opacity:1" fill="#f0f1f1" d="M 557.5,846.5 C 639.833,846.5 722.167,846.5 804.5,846.5C 804.5,1094.5 804.5,1342.5 804.5,1590.5C 722.167,1590.5 639.833,1590.5 557.5,1590.5C 557.5,1342.5 557.5,1094.5 557.5,846.5 Z"/></g>
</svg>
