<?xml version="1.0" encoding="UTF-8"?>
<!DOCTYPE svg PUBLIC "-//W3C//DTD SVG 1.1//EN" "http://www.w3.org/Graphics/SVG/1.1/DTD/svg11.dtd">
<svg xmlns="http://www.w3.org/2000/svg" version="1.1" width="600px" height="480px" style="shape-rendering:geometricPrecision; text-rendering:geometricPrecision; image-rendering:optimizeQuality; fill-rule:evenodd; clip-rule:evenodd" xmlns:xlink="http://www.w3.org/1999/xlink">
<g><path style="opacity:1" fill="#fefefe" d="M -0.5,-0.5 C 199.5,-0.5 399.5,-0.5 599.5,-0.5C 599.5,159.5 599.5,319.5 599.5,479.5C 399.5,479.5 199.5,479.5 -0.5,479.5C -0.5,319.5 -0.5,159.5 -0.5,-0.5 Z"/></g>
<g><path style="opacity:1" fill="#5e411b" d="M 348.5,107.5 C 343.977,103.65 340.644,98.9834 338.5,93.5C 336.808,86.7031 334.975,80.0365 333,73.5C 333.165,66.829 333.665,60.1623 334.5,53.5C 335.278,50.3904 337.278,48.7237 340.5,48.5C 368.432,56.6772 381.266,75.3439 379,104.5C 378.089,108.901 376.589,113.068 374.5,117C 369.637,117.809 364.97,117.142 360.5,115C 356.304,112.739 352.304,110.239 348.5,107.5 Z"/></g>
<g><path style="opacity:1" fill="#524f16" d="M 349.5,60.5 C 347.007,59.2264 344.341,58.5597 341.5,58.5C 340.207,66.1595 340.207,73.8261 341.5,81.5C 340.768,80.1917 339.934,78.8584 339,77.5C 337.847,70.5509 338.514,63.8842 341,57.5C 341.725,56.9415 342.558,56.6082 343.5,56.5C 345.987,57.2997 347.987,58.633 349.5,60.5 Z"/></g>
<g><path style="opacity:1" fill="#54962e" d="M 333.5,53.5 C 330.591,64.942 330.924,76.2753 334.5,87.5C 334.5,88.8333 333.833,89.5 332.5,89.5C 330.975,86.9209 329.641,84.2542 328.5,81.5C 327.693,75.5362 327.36,69.5362 327.5,63.5C 327.576,60.0272 328.242,56.6939 329.5,53.5C 330.833,53.5 332.167,53.5 333.5,53.5 Z"/></g>
<g><path style="opacity:1" fill="#4b9228" d="M 349.5,60.5 C 350.167,60.5 350.5,60.8333 350.5,61.5C 354.825,65.4918 358.158,70.1585 360.5,75.5C 354.672,73.7908 348.672,73.1241 342.5,73.5C 342.5,76.1667 342.5,78.8333 342.5,81.5C 342.167,81.5 341.833,81.5 341.5,81.5C 340.207,73.8261 340.207,66.1595 341.5,58.5C 344.341,58.5597 347.007,59.2264 349.5,60.5 Z"/></g>
<g><path style="opacity:1" fill="#544612" d="M 333.5,53.5 C 333.833,53.5 334.167,53.5 334.5,53.5C 333.665,60.1623 333.165,66.829 333,73.5C 334.975,80.0365 336.808,86.7031 338.5,93.5C 337.167,91.5 335.833,89.5 334.5,87.5C 330.924,76.2753 330.591,64.942 333.5,53.5 Z"/></g>
<g><path style="opacity:1" fill="#d1e8c4" d="M 327.5,63.5 C 327.36,69.5362 327.693,75.5362 328.5,81.5C 327.883,81.3893 327.383,81.056 327,80.5C 326.182,74.6513 326.348,68.9846 327.5,63.5 Z"/></g>
<g><path style="opacity:1" fill="#5da62c" d="M 360.5,75.5 C 361.401,76.2905 362.068,77.2905 362.5,78.5C 362.756,81.5979 363.422,84.5979 364.5,87.5C 362.058,87.6463 361.391,86.813 362.5,85C 357.167,84.3333 351.833,84.3333 346.5,85C 346.146,86.6255 346.146,88.4588 346.5,90.5C 344.375,87.9122 343.042,84.9122 342.5,81.5C 342.5,78.8333 342.5,76.1667 342.5,73.5C 348.672,73.1241 354.672,73.7908 360.5,75.5 Z"/></g>
<g><path style="opacity:1" fill="#f5f7e9" d="M 350.5,61.5 C 367.522,72.5793 373.856,88.246 369.5,108.5C 368.041,108.567 366.708,108.234 365.5,107.5C 366.546,100.87 366.713,94.203 366,87.5C 365.339,84.198 364.172,81.198 362.5,78.5C 362.068,77.2905 361.401,76.2905 360.5,75.5C 358.158,70.1585 354.825,65.4918 350.5,61.5 Z"/></g>
<g><path style="opacity:1" fill="#7fc13b" d="M 364.5,87.5 C 364.5,93.1667 364.5,98.8333 364.5,104.5C 363.167,104.5 361.833,104.5 360.5,104.5C 354.188,101.522 349.522,96.855 346.5,90.5C 346.146,88.4588 346.146,86.6255 346.5,85C 351.833,84.3333 357.167,84.3333 362.5,85C 361.391,86.813 362.058,87.6463 364.5,87.5 Z"/></g>
<g><path style="opacity:1" fill="#5f411c" d="M 337.5,124.5 C 329.735,121.555 321.568,120.221 313,120.5C 304.952,119.888 297.452,121.555 290.5,125.5C 289.29,125.932 288.29,126.599 287.5,127.5C 282.145,130.855 277.812,135.188 274.5,140.5C 273.094,140.973 272.427,141.973 272.5,143.5C 268.147,149.539 264.814,156.205 262.5,163.5C 260.5,166.833 258.5,170.167 256.5,173.5C 255.265,173.721 254.265,174.388 253.5,175.5C 252.833,175.167 252.167,174.833 251.5,174.5C 250.386,171.844 250.386,169.177 251.5,166.5C 254.575,158.686 257.909,151.02 261.5,143.5C 278.152,115.434 302.485,105.601 334.5,114C 340.88,115.845 347.214,117.845 353.5,120C 362.751,124.129 372.085,127.962 381.5,131.5C 386.079,111.087 398.412,97.9207 418.5,92C 422.755,91.2039 426.921,91.3705 431,92.5C 432.586,116.179 422.42,132.345 400.5,141C 396.179,141.499 391.846,141.666 387.5,141.5C 387.666,147.176 387.499,152.843 387,158.5C 384.633,161.932 381.966,162.265 379,159.5C 378.813,152.919 378.313,146.419 377.5,140C 364.691,133.427 351.357,128.26 337.5,124.5 Z"/></g>
<g><path style="opacity:1" fill="#94bc55" d="M 334.5,87.5 C 335.833,89.5 337.167,91.5 338.5,93.5C 340.644,98.9834 343.977,103.65 348.5,107.5C 340.712,103.71 335.379,97.7104 332.5,89.5C 333.833,89.5 334.5,88.8333 334.5,87.5 Z"/></g>
<g><path style="opacity:1" fill="#97c45b" d="M 362.5,78.5 C 364.172,81.198 365.339,84.198 366,87.5C 366.713,94.203 366.546,100.87 365.5,107.5C 363.566,106.89 361.899,105.89 360.5,104.5C 361.833,104.5 363.167,104.5 364.5,104.5C 364.5,98.8333 364.5,93.1667 364.5,87.5C 363.422,84.5979 362.756,81.5979 362.5,78.5 Z"/></g>
<g><path style="opacity:1" fill="#6eac35" d="M 414.5,120.5 C 414.67,119.178 414.337,118.011 413.5,117C 415.521,116.599 416.855,115.432 417.5,113.5C 412.198,112.337 406.864,112.171 401.5,113C 400.162,115.88 398.495,118.38 396.5,120.5C 395.833,120.833 395.167,121.167 394.5,121.5C 400.407,109.926 409.74,102.926 422.5,100.5C 421.966,108.118 419.299,114.785 414.5,120.5 Z"/></g>
<g><path style="opacity:1" fill="#7dc13a" d="M 414.5,120.5 C 414.5,121.167 414.167,121.5 413.5,121.5C 407.642,121.822 401.975,121.489 396.5,120.5C 398.495,118.38 400.162,115.88 401.5,113C 406.864,112.171 412.198,112.337 417.5,113.5C 416.855,115.432 415.521,116.599 413.5,117C 414.337,118.011 414.67,119.178 414.5,120.5 Z"/></g>
<g><path style="opacity:1" fill="#94d144" d="M 396.5,120.5 C 401.975,121.489 407.642,121.822 413.5,121.5C 412.167,124.833 409.833,127.167 406.5,128.5C 402.056,130.309 397.39,131.309 392.5,131.5C 393.167,128.167 393.833,124.833 394.5,121.5C 395.167,121.167 395.833,120.833 396.5,120.5 Z"/></g>
<g><path style="opacity:1" fill="#fbf2e4" d="M 337.5,124.5 C 329.941,122.849 322.274,121.849 314.5,121.5C 308.675,121.451 303.008,122.284 297.5,124C 307.219,125.203 316.552,127.536 325.5,131C 326.71,132.039 327.71,133.206 328.5,134.5C 320.687,130.462 312.353,128.129 303.5,127.5C 299.167,126.833 294.833,126.167 290.5,125.5C 297.452,121.555 304.952,119.888 313,120.5C 321.568,120.221 329.735,121.555 337.5,124.5 Z"/></g>
<g><path style="opacity:1" fill="#e29b71" d="M 290.5,125.5 C 294.833,126.167 299.167,126.833 303.5,127.5C 298.167,127.5 292.833,127.5 287.5,127.5C 288.29,126.599 289.29,125.932 290.5,125.5 Z"/></g>
<g><path style="opacity:1" fill="#a3c74f" d="M 394.5,121.5 C 393.833,124.833 393.167,128.167 392.5,131.5C 397.39,131.309 402.056,130.309 406.5,128.5C 401.493,132.501 395.827,133.835 389.5,132.5C 390.608,128.478 392.275,124.812 394.5,121.5 Z"/></g>
<g><path style="opacity:1" fill="#f47223" d="M 287.5,127.5 C 292.833,127.5 298.167,127.5 303.5,127.5C 312.353,128.129 320.687,130.462 328.5,134.5C 330.167,135.833 331.833,137.167 333.5,138.5C 333.782,139.778 334.449,140.778 335.5,141.5C 316.24,142.224 297.073,142.89 278,143.5C 276.271,143.026 275.105,142.026 274.5,140.5C 277.812,135.188 282.145,130.855 287.5,127.5 Z"/></g>
<g><path style="opacity:1" fill="#e58547" d="M 333.5,138.5 C 337.603,140.216 340.936,142.883 343.5,146.5C 340.851,144.86 338.184,143.193 335.5,141.5C 334.449,140.778 333.782,139.778 333.5,138.5 Z"/></g>
<g><path style="opacity:1" fill="#ffefda" d="M 328.5,134.5 C 337.048,137.446 343.715,142.779 348.5,150.5C 346.833,149.167 345.167,147.833 343.5,146.5C 340.936,142.883 337.603,140.216 333.5,138.5C 331.833,137.167 330.167,135.833 328.5,134.5 Z"/></g>
<g><path style="opacity:1" fill="#f67a25" d="M 274.5,140.5 C 275.105,142.026 276.271,143.026 278,143.5C 297.073,142.89 316.24,142.224 335.5,141.5C 338.184,143.193 340.851,144.86 343.5,146.5C 344.038,148.117 344.371,149.784 344.5,151.5C 342.533,151.261 340.699,151.594 339,152.5C 316.069,151.838 293.236,151.172 270.5,150.5C 271.933,148.442 272.6,146.108 272.5,143.5C 272.427,141.973 273.094,140.973 274.5,140.5 Z"/></g>
<g><path style="opacity:1" fill="#f7802a" d="M 343.5,146.5 C 345.167,147.833 346.833,149.167 348.5,150.5C 349.11,151.391 349.443,152.391 349.5,153.5C 350.386,156.263 351.053,158.763 351.5,161C 348.918,160.745 346.252,160.578 343.5,160.5C 340.994,159.25 338.327,158.584 335.5,158.5C 333.234,158.141 331.401,158.808 330,160.5C 326.197,159.646 322.197,159.313 318,159.5C 316.289,159.439 314.956,160.106 314,161.5C 312.983,158.972 311.816,158.972 310.5,161.5C 309.167,158.833 307.833,158.833 306.5,161.5C 304.781,158.952 303.448,159.285 302.5,162.5C 301.833,161.5 301.167,160.5 300.5,159.5C 297.911,162.105 295.411,162.105 293,159.5C 290.108,163.378 287.275,163.378 284.5,159.5C 281.833,159.5 279.167,159.5 276.5,159.5C 275.167,162.167 273.833,162.167 272.5,159.5C 271.184,162.028 270.017,162.028 269,159.5C 268.667,159.833 268.333,160.167 268,160.5C 267.5,159.5 267,158.5 266.5,157.5C 267.583,154.862 268.916,152.529 270.5,150.5C 293.236,151.172 316.069,151.838 339,152.5C 340.699,151.594 342.533,151.261 344.5,151.5C 344.371,149.784 344.038,148.117 343.5,146.5 Z"/></g>
<g><path style="opacity:1" fill="#f6862e" d="M 272.5,143.5 C 272.6,146.108 271.933,148.442 270.5,150.5C 268.916,152.529 267.583,154.862 266.5,157.5C 267,158.5 267.5,159.5 268,160.5C 268.333,160.167 268.667,159.833 269,159.5C 270.017,162.028 271.184,162.028 272.5,159.5C 273.833,162.167 275.167,162.167 276.5,159.5C 279.167,159.5 281.833,159.5 284.5,159.5C 287.275,163.378 290.108,163.378 293,159.5C 295.411,162.105 297.911,162.105 300.5,159.5C 301.167,160.5 301.833,161.5 302.5,162.5C 303.448,159.285 304.781,158.952 306.5,161.5C 307.833,158.833 309.167,158.833 310.5,161.5C 311.816,158.972 312.983,158.972 314,161.5C 314.956,160.106 316.289,159.439 318,159.5C 322.197,159.313 326.197,159.646 330,160.5C 331.401,158.808 333.234,158.141 335.5,158.5C 333.5,159.833 331.833,161.5 330.5,163.5C 328.72,164.99 328.054,166.99 328.5,169.5C 322.21,168.229 316.043,168.896 310,171.5C 307.021,170.486 304.354,171.152 302,173.5C 298.652,170.448 294.819,169.782 290.5,171.5C 285.266,169.793 279.932,169.293 274.5,170C 275.696,170.654 275.696,171.154 274.5,171.5C 273.167,168.833 271.833,168.833 270.5,171.5C 269.304,171.154 269.304,170.654 270.5,170C 267.5,169.667 264.5,169.333 261.5,169C 262.406,167.301 262.739,165.467 262.5,163.5C 264.814,156.205 268.147,149.539 272.5,143.5 Z"/></g>
<g><path style="opacity:1" fill="#fffbf4" d="M 335.5,158.5 C 338.327,158.584 340.994,159.25 343.5,160.5C 346.35,163.555 348.683,166.889 350.5,170.5C 351.657,176.386 349.99,181.219 345.5,185C 343.833,185.667 342.167,185.667 340.5,185C 338.004,183.334 335.671,181.5 333.5,179.5C 331.05,174.47 330.05,169.136 330.5,163.5C 331.833,161.5 333.5,159.833 335.5,158.5 Z"/></g>
<g><path style="opacity:1" fill="#d78f54" d="M 261.5,143.5 C 257.909,151.02 254.575,158.686 251.5,166.5C 248.078,171.678 244.411,176.678 240.5,181.5C 246.462,170.814 251.962,159.814 257,148.5C 258.049,146.382 259.549,144.716 261.5,143.5 Z"/></g>
<g><path style="opacity:1" fill="#f78d33" d="M 262.5,163.5 C 262.739,165.467 262.406,167.301 261.5,169C 264.5,169.333 267.5,169.667 270.5,170C 269.304,170.654 269.304,171.154 270.5,171.5C 271.833,168.833 273.167,168.833 274.5,171.5C 275.696,171.154 275.696,170.654 274.5,170C 279.932,169.293 285.266,169.793 290.5,171.5C 294.819,169.782 298.652,170.448 302,173.5C 304.354,171.152 307.021,170.486 310,171.5C 316.043,168.896 322.21,168.229 328.5,169.5C 328.396,172.09 329.063,174.423 330.5,176.5C 329.999,178.851 328.499,180.184 326,180.5C 323.593,179.673 321.26,178.673 319,177.5C 316.812,177.354 315.479,178.354 315,180.5C 314.085,179.672 313.419,178.672 313,177.5C 310.768,178.187 308.602,178.521 306.5,178.5C 303.342,176.584 300.175,176.917 297,179.5C 296.667,179.167 296.333,178.833 296,178.5C 293.621,183.778 292.621,183.778 293,178.5C 292.667,178.833 292.333,179.167 292,179.5C 288.541,177.34 285.374,177.34 282.5,179.5C 281.833,178.833 281.167,178.167 280.5,177.5C 278.438,179.725 276.105,180.058 273.5,178.5C 272.459,180.991 271.626,180.991 271,178.5C 269.992,178.982 268.825,179.148 267.5,179C 265.224,180.874 265.557,182.541 268.5,184C 263.552,185.05 258.552,185.55 253.5,185.5C 252.662,185.158 252.328,184.492 252.5,183.5C 252.5,182.833 252.5,182.167 252.5,181.5C 253.82,178.86 255.153,176.193 256.5,173.5C 258.5,170.167 260.5,166.833 262.5,163.5 Z"/></g>
<g><path style="opacity:1" fill="#f69237" d="M 330.5,163.5 C 330.05,169.136 331.05,174.47 333.5,179.5C 334.075,181.411 335.075,183.078 336.5,184.5C 335.922,186.443 334.922,186.777 333.5,185.5C 332.5,186.167 331.5,186.833 330.5,187.5C 327.4,187.649 324.067,187.316 320.5,186.5C 317.679,187.285 314.846,188.285 312,189.5C 310.333,188.833 308.667,188.167 307,187.5C 304.153,188.148 301.319,188.481 298.5,188.5C 296.267,188.136 294.434,187.136 293,185.5C 291.119,187.825 289.452,187.825 288,185.5C 284.367,185.321 280.7,185.988 277,187.5C 271.396,187.257 265.896,187.257 260.5,187.5C 257.92,187.276 255.586,186.609 253.5,185.5C 258.552,185.55 263.552,185.05 268.5,184C 265.557,182.541 265.224,180.874 267.5,179C 268.825,179.148 269.992,178.982 271,178.5C 271.626,180.991 272.459,180.991 273.5,178.5C 276.105,180.058 278.438,179.725 280.5,177.5C 281.167,178.167 281.833,178.833 282.5,179.5C 285.374,177.34 288.541,177.34 292,179.5C 292.333,179.167 292.667,178.833 293,178.5C 292.621,183.778 293.621,183.778 296,178.5C 296.333,178.833 296.667,179.167 297,179.5C 300.175,176.917 303.342,176.584 306.5,178.5C 308.602,178.521 310.768,178.187 313,177.5C 313.419,178.672 314.085,179.672 315,180.5C 315.479,178.354 316.812,177.354 319,177.5C 321.26,178.673 323.593,179.673 326,180.5C 328.499,180.184 329.999,178.851 330.5,176.5C 329.063,174.423 328.396,172.09 328.5,169.5C 328.054,166.99 328.72,164.99 330.5,163.5 Z"/></g>
<g><path style="opacity:1" fill="#f68f36" d="M 349.5,153.5 C 354.648,158.793 357.981,165.126 359.5,172.5C 360.292,178.13 360.625,183.797 360.5,189.5C 355.867,189.565 351.2,188.898 346.5,187.5C 351.074,183.098 352.907,177.765 352,171.5C 351.617,170.944 351.117,170.611 350.5,170.5C 348.683,166.889 346.35,163.555 343.5,160.5C 346.252,160.578 348.918,160.745 351.5,161C 351.053,158.763 350.386,156.263 349.5,153.5 Z"/></g>
<g><path style="opacity:1" fill="#f79939" d="M 252.5,183.5 C 252.328,184.492 252.662,185.158 253.5,185.5C 255.586,186.609 257.92,187.276 260.5,187.5C 265.896,187.257 271.396,187.257 277,187.5C 280.7,185.988 284.367,185.321 288,185.5C 289.452,187.825 291.119,187.825 293,185.5C 294.434,187.136 296.267,188.136 298.5,188.5C 301.319,188.481 304.153,188.148 307,187.5C 308.667,188.167 310.333,188.833 312,189.5C 314.846,188.285 317.679,187.285 320.5,186.5C 324.067,187.316 327.4,187.649 330.5,187.5C 331.5,186.833 332.5,186.167 333.5,185.5C 334.922,186.777 335.922,186.443 336.5,184.5C 339.524,184.947 339.857,185.78 337.5,187C 339.167,188.333 340.833,189.667 342.5,191C 340.963,192.11 340.297,193.61 340.5,195.5C 307.399,195.59 274.399,195.423 241.5,195C 245.398,191.271 249.065,187.438 252.5,183.5 Z"/></g>
<g><path style="opacity:1" fill="#e8a25d" d="M 359.5,172.5 C 360.887,174.877 361.721,177.543 362,180.5C 362.597,188.185 362.43,195.852 361.5,203.5C 361.167,203.5 360.833,203.5 360.5,203.5C 360.5,198.833 360.5,194.167 360.5,189.5C 360.625,183.797 360.292,178.13 359.5,172.5 Z"/></g>
<g><path style="opacity:1" fill="#5f411f" d="M 356.5,239.5 C 356.343,238.127 356.51,236.793 357,235.5C 359.221,233.085 361.055,230.418 362.5,227.5C 361.726,226.289 360.893,226.289 360,227.5C 359.667,226.5 359.333,225.5 359,224.5C 358.29,225.973 357.124,226.64 355.5,226.5C 356.529,224.483 357.529,222.483 358.5,220.5C 366.549,206.609 369.383,191.609 367,175.5C 363.934,163.441 357.934,153.108 349,144.5C 347.686,140.819 348.853,138.486 352.5,137.5C 365.108,147.018 372.941,159.684 376,175.5C 378.148,199.598 371.648,220.931 356.5,239.5 Z"/></g>
<g><path style="opacity:1" fill="#603f17" d="M 251.5,166.5 C 250.386,169.177 250.386,171.844 251.5,174.5C 252.167,174.833 252.833,175.167 253.5,175.5C 254.265,174.388 255.265,173.721 256.5,173.5C 255.153,176.193 253.82,178.86 252.5,181.5C 243.215,194.151 230.881,202.318 215.5,206C 212.761,207.026 210.428,208.526 208.5,210.5C 206.983,210.511 205.816,211.177 205,212.5C 201.165,222.148 202.331,231.148 208.5,239.5C 210.697,243.238 213.364,246.571 216.5,249.5C 221.406,255.614 227.406,260.281 234.5,263.5C 242.156,267.997 250.489,270.83 259.5,272C 283.008,274.099 304.674,268.933 324.5,256.5C 328.736,254.555 332.403,251.888 335.5,248.5C 338.86,245.806 341.86,242.806 344.5,239.5C 348.869,235.763 352.535,231.43 355.5,226.5C 357.124,226.64 358.29,225.973 359,224.5C 359.333,225.5 359.667,226.5 360,227.5C 360.893,226.289 361.726,226.289 362.5,227.5C 361.055,230.418 359.221,233.085 357,235.5C 356.51,236.793 356.343,238.127 356.5,239.5C 342.648,257.003 324.981,269.003 303.5,275.5C 302.596,276.209 302.263,277.209 302.5,278.5C 310.528,278.169 318.528,278.502 326.5,279.5C 326.833,280.167 327.167,280.833 327.5,281.5C 324.973,282.214 322.473,282.88 320,283.5C 271.745,282.991 223.745,282.991 176,283.5C 173.527,282.88 171.027,282.214 168.5,281.5C 168.833,280.833 169.167,280.167 169.5,279.5C 191.826,278.667 214.159,278.167 236.5,278C 237.056,277.617 237.389,277.117 237.5,276.5C 241.5,276.167 241.5,275.833 237.5,275.5C 228.991,271.326 220.991,266.326 213.5,260.5C 207.049,253.205 201.549,245.205 197,236.5C 194.397,230.425 193.231,224.091 193.5,217.5C 194.167,215.167 194.833,212.833 195.5,210.5C 198.306,206.863 201.639,203.696 205.5,201C 213.167,198 220.833,195 228.5,192C 233.175,189.179 237.175,185.679 240.5,181.5C 244.411,176.678 248.078,171.678 251.5,166.5 Z"/></g>
<g><path style="opacity:1" fill="#ee9d4a" d="M 350.5,170.5 C 351.117,170.611 351.617,170.944 352,171.5C 352.907,177.765 351.074,183.098 346.5,187.5C 347.263,188.268 348.263,188.768 349.5,189C 350.252,189.671 350.586,190.504 350.5,191.5C 351.787,192.871 352.453,194.705 352.5,197C 353.243,203.089 350.576,205.589 344.5,204.5C 344.191,201.654 342.525,200.154 339.5,200C 339.214,198.612 339.548,197.112 340.5,195.5C 340.297,193.61 340.963,192.11 342.5,191C 340.833,189.667 339.167,188.333 337.5,187C 339.857,185.78 339.524,184.947 336.5,184.5C 335.075,183.078 334.075,181.411 333.5,179.5C 335.671,181.5 338.004,183.334 340.5,185C 342.167,185.667 343.833,185.667 345.5,185C 349.99,181.219 351.657,176.386 350.5,170.5 Z"/></g>
<g><path style="opacity:1" fill="#f8a33f" d="M 252.5,181.5 C 252.5,182.167 252.5,182.833 252.5,183.5C 249.065,187.438 245.398,191.271 241.5,195C 274.399,195.423 307.399,195.59 340.5,195.5C 339.548,197.112 339.214,198.612 339.5,200C 342.525,200.154 344.191,201.654 344.5,204.5C 350.576,205.589 353.243,203.089 352.5,197C 352.453,194.705 351.787,192.871 350.5,191.5C 350.586,190.504 350.252,189.671 349.5,189C 348.263,188.768 347.263,188.268 346.5,187.5C 351.2,188.898 355.867,189.565 360.5,189.5C 360.5,194.167 360.5,198.833 360.5,203.5C 359.85,205.435 359.517,207.435 359.5,209.5C 359.5,210.167 359.5,210.833 359.5,211.5C 359.167,211.5 358.833,211.5 358.5,211.5C 356.97,212.067 355.47,212.733 354,213.5C 352.846,211.043 351.512,211.043 350,213.5C 348.846,211.043 347.512,211.043 346,213.5C 344.846,211.043 343.512,211.043 342,213.5C 340.846,211.043 339.512,211.043 338,213.5C 336.846,211.043 335.512,211.043 334,213.5C 332.846,211.043 331.512,211.043 330,213.5C 328.846,211.043 327.512,211.043 326,213.5C 324.846,211.043 323.512,211.043 322,213.5C 320.846,211.043 319.512,211.043 318,213.5C 316.846,211.043 315.512,211.043 314,213.5C 312.846,211.043 311.512,211.043 310,213.5C 308.846,211.043 307.512,211.043 306,213.5C 304.846,211.043 303.512,211.043 302,213.5C 300.846,211.043 299.512,211.043 298,213.5C 296.846,211.043 295.512,211.043 294,213.5C 292.846,211.043 291.512,211.043 290,213.5C 288.846,211.043 287.512,211.043 286,213.5C 284.846,211.043 283.512,211.043 282,213.5C 280.846,211.043 279.512,211.043 278,213.5C 276.846,211.043 275.512,211.043 274,213.5C 272.846,211.043 271.512,211.043 270,213.5C 268.846,211.043 267.512,211.043 266,213.5C 264.846,211.043 263.512,211.043 262,213.5C 260.846,211.043 259.512,211.043 258,213.5C 256.846,211.043 255.512,211.043 254,213.5C 252.846,211.043 251.512,211.043 250,213.5C 248.846,211.043 247.512,211.043 246,213.5C 244.846,211.043 243.512,211.043 242,213.5C 240.846,211.043 239.512,211.043 238,213.5C 236.846,211.043 235.512,211.043 234,213.5C 232.846,211.043 231.512,211.043 230,213.5C 228.846,211.043 227.512,211.043 226,213.5C 224.846,211.043 223.512,211.043 222,213.5C 220.846,211.043 219.512,211.043 218,213.5C 217.001,209.763 215.668,209.763 214,213.5C 213.692,212.692 213.192,212.025 212.5,211.5C 211.135,212.807 209.802,212.807 208.5,211.5C 208.5,211.167 208.5,210.833 208.5,210.5C 210.428,208.526 212.761,207.026 215.5,206C 230.881,202.318 243.215,194.151 252.5,181.5 Z"/></g>
<g><path style="opacity:1" fill="#fff8eb" d="M 350.5,191.5 C 351.885,194.546 351.719,197.546 350,200.5C 345.408,201.94 342.908,200.107 342.5,195C 343.278,189.311 345.945,188.144 350.5,191.5 Z"/></g>
<g><path style="opacity:1" fill="#f3cb98" d="M 360.5,203.5 C 360.833,203.5 361.167,203.5 361.5,203.5C 361.741,205.898 361.074,207.898 359.5,209.5C 359.517,207.435 359.85,205.435 360.5,203.5 Z"/></g>
<g><path style="opacity:1" fill="#f8ad46" d="M 358.5,211.5 C 358.405,213.786 357.738,215.786 356.5,217.5C 354.409,220.15 352.409,222.983 350.5,226C 301.929,226.169 253.429,226.669 205,227.5C 204.333,223.5 204.333,219.5 205,215.5C 205.69,213.65 206.856,212.316 208.5,211.5C 209.802,212.807 211.135,212.807 212.5,211.5C 213.192,212.025 213.692,212.692 214,213.5C 215.668,209.763 217.001,209.763 218,213.5C 219.512,211.043 220.846,211.043 222,213.5C 223.512,211.043 224.846,211.043 226,213.5C 227.512,211.043 228.846,211.043 230,213.5C 231.512,211.043 232.846,211.043 234,213.5C 235.512,211.043 236.846,211.043 238,213.5C 239.512,211.043 240.846,211.043 242,213.5C 243.512,211.043 244.846,211.043 246,213.5C 247.512,211.043 248.846,211.043 250,213.5C 251.512,211.043 252.846,211.043 254,213.5C 255.512,211.043 256.846,211.043 258,213.5C 259.512,211.043 260.846,211.043 262,213.5C 263.512,211.043 264.846,211.043 266,213.5C 267.512,211.043 268.846,211.043 270,213.5C 271.512,211.043 272.846,211.043 274,213.5C 275.512,211.043 276.846,211.043 278,213.5C 279.512,211.043 280.846,211.043 282,213.5C 283.512,211.043 284.846,211.043 286,213.5C 287.512,211.043 288.846,211.043 290,213.5C 291.512,211.043 292.846,211.043 294,213.5C 295.512,211.043 296.846,211.043 298,213.5C 299.512,211.043 300.846,211.043 302,213.5C 303.512,211.043 304.846,211.043 306,213.5C 307.512,211.043 308.846,211.043 310,213.5C 311.512,211.043 312.846,211.043 314,213.5C 315.512,211.043 316.846,211.043 318,213.5C 319.512,211.043 320.846,211.043 322,213.5C 323.512,211.043 324.846,211.043 326,213.5C 327.512,211.043 328.846,211.043 330,213.5C 331.512,211.043 332.846,211.043 334,213.5C 335.512,211.043 336.846,211.043 338,213.5C 339.512,211.043 340.846,211.043 342,213.5C 343.512,211.043 344.846,211.043 346,213.5C 347.512,211.043 348.846,211.043 350,213.5C 351.512,211.043 352.846,211.043 354,213.5C 355.47,212.733 356.97,212.067 358.5,211.5 Z"/></g>
<g><path style="opacity:1" fill="#f9e9c6" d="M 358.5,211.5 C 358.833,211.5 359.167,211.5 359.5,211.5C 359.037,214.482 358.704,217.482 358.5,220.5C 357.529,222.483 356.529,224.483 355.5,226.5C 352.535,231.43 348.869,235.763 344.5,239.5C 344.351,238.448 344.517,237.448 345,236.5C 347.805,234.869 349.638,232.536 350.5,229.5C 353.061,225.842 355.061,221.842 356.5,217.5C 357.738,215.786 358.405,213.786 358.5,211.5 Z"/></g>
<g><path style="opacity:1" fill="#f8b44b" d="M 208.5,210.5 C 208.5,210.833 208.5,211.167 208.5,211.5C 206.856,212.316 205.69,213.65 205,215.5C 204.333,219.5 204.333,223.5 205,227.5C 253.429,226.669 301.929,226.169 350.5,226C 352.409,222.983 354.409,220.15 356.5,217.5C 355.061,221.842 353.061,225.842 350.5,229.5C 347.932,229.594 346.432,230.928 346,233.5C 302.706,233.655 259.206,233.488 215.5,233C 215.167,232.667 214.833,232.333 214.5,232C 218.424,231.201 218.424,230.701 214.5,230.5C 213.5,230.667 212.5,230.833 211.5,231C 212.956,231.423 213.456,232.256 213,233.5C 211.657,232.786 210.324,233.12 209,234.5C 208.333,233.833 207.667,233.167 207,232.5C 207.437,234.757 207.937,237.09 208.5,239.5C 202.331,231.148 201.165,222.148 205,212.5C 205.816,211.177 206.983,210.511 208.5,210.5 Z"/></g>
<g><path style="opacity:1" fill="#eebd72" d="M 195.5,210.5 C 194.833,212.833 194.167,215.167 193.5,217.5C 192.504,217.414 191.671,217.748 191,218.5C 190.333,222.833 190.333,227.167 191,231.5C 192.474,234.756 193.64,238.089 194.5,241.5C 189.767,234.261 188.267,226.261 190,217.5C 191.371,214.734 193.204,212.401 195.5,210.5 Z"/></g>
<g><path style="opacity:1" fill="#f8bd50" d="M 350.5,229.5 C 349.638,232.536 347.805,234.869 345,236.5C 344.517,237.448 344.351,238.448 344.5,239.5C 341.86,242.806 338.86,245.806 335.5,248.5C 335.53,247.503 335.03,246.836 334,246.5C 332.395,247.101 331.062,248.101 330,249.5C 329,246.833 328,246.833 327,249.5C 326.311,248.643 325.478,247.977 324.5,247.5C 323.167,248.833 321.833,248.833 320.5,247.5C 319.522,247.977 318.689,248.643 318,249.5C 316.983,246.972 315.816,246.972 314.5,249.5C 313.167,246.833 311.833,246.833 310.5,249.5C 309.167,246.833 307.833,246.833 306.5,249.5C 305.167,246.833 303.833,246.833 302.5,249.5C 301.167,246.833 299.833,246.833 298.5,249.5C 297.167,246.833 295.833,246.833 294.5,249.5C 293.167,246.833 291.833,246.833 290.5,249.5C 289.167,246.833 287.833,246.833 286.5,249.5C 285.167,246.833 283.833,246.833 282.5,249.5C 281.167,246.833 279.833,246.833 278.5,249.5C 277.167,246.833 275.833,246.833 274.5,249.5C 273.167,246.833 271.833,246.833 270.5,249.5C 269.167,246.833 267.833,246.833 266.5,249.5C 265.167,246.833 263.833,246.833 262.5,249.5C 261.167,246.833 259.833,246.833 258.5,249.5C 257.167,246.833 255.833,246.833 254.5,249.5C 253.167,246.833 251.833,246.833 250.5,249.5C 249.167,246.833 247.833,246.833 246.5,249.5C 245.167,246.833 243.833,246.833 242.5,249.5C 241.167,246.833 239.833,246.833 238.5,249.5C 237.167,246.833 235.833,246.833 234.5,249.5C 233.167,246.833 231.833,246.833 230.5,249.5C 229.167,246.833 227.833,246.833 226.5,249.5C 225.833,248.833 225.167,248.167 224.5,247.5C 222.793,251.136 221.626,251.136 221,247.5C 219.89,249.037 218.39,249.703 216.5,249.5C 213.364,246.571 210.697,243.238 208.5,239.5C 207.937,237.09 207.437,234.757 207,232.5C 207.667,233.167 208.333,233.833 209,234.5C 210.324,233.12 211.657,232.786 213,233.5C 213.456,232.256 212.956,231.423 211.5,231C 212.5,230.833 213.5,230.667 214.5,230.5C 218.424,230.701 218.424,231.201 214.5,232C 214.833,232.333 215.167,232.667 215.5,233C 259.206,233.488 302.706,233.655 346,233.5C 346.432,230.928 347.932,229.594 350.5,229.5 Z"/></g>
<g><path style="opacity:1" fill="#f1bb59" d="M 193.5,217.5 C 193.231,224.091 194.397,230.425 197,236.5C 201.549,245.205 207.049,253.205 213.5,260.5C 211.784,260.371 210.117,260.038 208.5,259.5C 202.718,254.383 198.051,248.383 194.5,241.5C 193.64,238.089 192.474,234.756 191,231.5C 190.333,227.167 190.333,222.833 191,218.5C 191.671,217.748 192.504,217.414 193.5,217.5 Z"/></g>
<g><path style="opacity:1" fill="#f8c455" d="M 335.5,248.5 C 332.403,251.888 328.736,254.555 324.5,256.5C 309.785,256.817 295.118,256.483 280.5,255.5C 271.686,255.843 263.019,256.843 254.5,258.5C 250.687,257.238 246.687,256.571 242.5,256.5C 238.833,256.667 235.167,256.833 231.5,257C 233.301,257.317 233.634,257.984 232.5,259C 233.582,260.33 234.249,261.83 234.5,263.5C 227.406,260.281 221.406,255.614 216.5,249.5C 218.39,249.703 219.89,249.037 221,247.5C 221.626,251.136 222.793,251.136 224.5,247.5C 225.167,248.167 225.833,248.833 226.5,249.5C 227.833,246.833 229.167,246.833 230.5,249.5C 231.833,246.833 233.167,246.833 234.5,249.5C 235.833,246.833 237.167,246.833 238.5,249.5C 239.833,246.833 241.167,246.833 242.5,249.5C 243.833,246.833 245.167,246.833 246.5,249.5C 247.833,246.833 249.167,246.833 250.5,249.5C 251.833,246.833 253.167,246.833 254.5,249.5C 255.833,246.833 257.167,246.833 258.5,249.5C 259.833,246.833 261.167,246.833 262.5,249.5C 263.833,246.833 265.167,246.833 266.5,249.5C 267.833,246.833 269.167,246.833 270.5,249.5C 271.833,246.833 273.167,246.833 274.5,249.5C 275.833,246.833 277.167,246.833 278.5,249.5C 279.833,246.833 281.167,246.833 282.5,249.5C 283.833,246.833 285.167,246.833 286.5,249.5C 287.833,246.833 289.167,246.833 290.5,249.5C 291.833,246.833 293.167,246.833 294.5,249.5C 295.833,246.833 297.167,246.833 298.5,249.5C 299.833,246.833 301.167,246.833 302.5,249.5C 303.833,246.833 305.167,246.833 306.5,249.5C 307.833,246.833 309.167,246.833 310.5,249.5C 311.833,246.833 313.167,246.833 314.5,249.5C 315.816,246.972 316.983,246.972 318,249.5C 318.689,248.643 319.522,247.977 320.5,247.5C 321.833,248.833 323.167,248.833 324.5,247.5C 325.478,247.977 326.311,248.643 327,249.5C 328,246.833 329,246.833 330,249.5C 331.062,248.101 332.395,247.101 334,246.5C 335.03,246.836 335.53,247.503 335.5,248.5 Z"/></g>
<g><path style="opacity:1" fill="#f7ca5a" d="M 324.5,256.5 C 304.674,268.933 283.008,274.099 259.5,272C 250.489,270.83 242.156,267.997 234.5,263.5C 234.249,261.83 233.582,260.33 232.5,259C 233.634,257.984 233.301,257.317 231.5,257C 235.167,256.833 238.833,256.667 242.5,256.5C 246.687,256.571 250.687,257.238 254.5,258.5C 263.019,256.843 271.686,255.843 280.5,255.5C 295.118,256.483 309.785,256.817 324.5,256.5 Z"/></g>
<g><path style="opacity:1" fill="#eecb75" d="M 208.5,259.5 C 210.117,260.038 211.784,260.371 213.5,260.5C 220.991,266.326 228.991,271.326 237.5,275.5C 231.014,274.396 225.014,272.063 219.5,268.5C 215.518,265.848 211.851,262.848 208.5,259.5 Z"/></g>
<g><path style="opacity:1" fill="#fefbe8" d="M 219.5,268.5 C 225.014,272.063 231.014,274.396 237.5,275.5C 241.5,275.833 241.5,276.167 237.5,276.5C 214.833,276.5 192.167,276.5 169.5,276.5C 188.996,275.668 208.662,275.168 228.5,275C 226.774,273.47 224.774,272.47 222.5,272C 220.937,271.241 219.937,270.074 219.5,268.5 Z"/></g>
<g><path style="opacity:1" fill="#604321" d="M 339.5,276.5 C 346.508,276.334 353.508,276.5 360.5,277C 364.386,279.526 364.386,282.192 360.5,285C 353.833,285.667 347.167,285.667 340.5,285C 337.001,282.514 336.668,279.681 339.5,276.5 Z"/></g>
<g><path style="opacity:1" fill="#63482a" d="M 303.5,275.5 C 310.989,276.329 318.656,276.829 326.5,277C 330.386,279.526 330.386,282.192 326.5,285C 274.167,285.667 221.833,285.667 169.5,285C 166.899,282.17 166.899,279.337 169.5,276.5C 192.167,276.5 214.833,276.5 237.5,276.5C 237.389,277.117 237.056,277.617 236.5,278C 214.159,278.167 191.826,278.667 169.5,279.5C 169.167,280.167 168.833,280.833 168.5,281.5C 171.027,282.214 173.527,282.88 176,283.5C 223.745,282.991 271.745,282.991 320,283.5C 322.473,282.88 324.973,282.214 327.5,281.5C 327.167,280.833 326.833,280.167 326.5,279.5C 318.528,278.502 310.528,278.169 302.5,278.5C 302.263,277.209 302.596,276.209 303.5,275.5 Z"/></g>
<g><path style="opacity:1" fill="#614322" d="M 60.5,313.5 C 66.1764,313.334 71.8431,313.501 77.5,314C 85.5523,318.185 87.5523,324.352 83.5,332.5C 92.6254,337.086 96.1254,344.419 94,354.5C 92.0919,360.74 87.9253,364.573 81.5,366C 74.2529,366.812 67.0862,366.646 60,365.5C 59.1818,348.093 59.3485,330.76 60.5,313.5 Z"/></g>
<g><path style="opacity:1" fill="#5f3e1a" d="M 326.5,314.5 C 326.5,331.167 326.5,347.833 326.5,364.5C 325.167,364.5 323.833,364.5 322.5,364.5C 322.5,347.833 322.5,331.167 322.5,314.5C 323.833,313.167 325.167,313.167 326.5,314.5 Z"/></g>
<g><path style="opacity:1" fill="#644526" d="M 390.5,318.5 C 383.167,318.5 375.833,318.5 368.5,318.5C 368.177,324.69 368.51,330.69 369.5,336.5C 375.509,336.334 381.509,336.501 387.5,337C 389.527,338.396 389.86,340.062 388.5,342C 382.175,342.5 375.842,342.666 369.5,342.5C 369.666,349.841 369.5,357.174 369,364.5C 367.604,366.527 365.938,366.86 364,365.5C 363.333,348.167 363.333,330.833 364,313.5C 372.755,312.35 381.588,312.184 390.5,313C 393.124,314.969 393.124,316.802 390.5,318.5 Z"/></g>
<g><path style="opacity:1" fill="#644625" d="M 505.5,313.5 C 507.467,313.261 509.301,313.594 511,314.5C 511.667,331.167 511.667,347.833 511,364.5C 510.261,365.574 509.261,366.241 508,366.5C 506.374,365.711 504.874,364.711 503.5,363.5C 493.077,369.087 484.577,367.087 478,357.5C 473.32,345.034 477.153,336.534 489.5,332C 495.065,330.819 500.065,331.986 504.5,335.5C 505.497,328.197 505.831,320.863 505.5,313.5 Z"/></g>
<g><path style="opacity:1" fill="#60482c" d="M 322.5,314.5 C 322.5,331.167 322.5,347.833 322.5,364.5C 323.833,364.5 325.167,364.5 326.5,364.5C 326.5,347.833 326.5,331.167 326.5,314.5C 327.662,331.328 327.828,348.328 327,365.5C 325.333,366.833 323.667,366.833 322,365.5C 321.172,348.328 321.338,331.328 322.5,314.5 Z"/></g>
<g><path style="opacity:1" fill="#ad9a84" d="M 390.5,318.5 C 383.687,319.491 376.687,319.825 369.5,319.5C 369.5,325.167 369.5,330.833 369.5,336.5C 368.51,330.69 368.177,324.69 368.5,318.5C 375.833,318.5 383.167,318.5 390.5,318.5 Z"/></g>
<g><path style="opacity:1" fill="#cabaaa" d="M 74.5,319.5 C 71.8333,319.5 69.1667,319.5 66.5,319.5C 66.5,323.5 66.5,327.5 66.5,331.5C 69.1667,331.5 71.8333,331.5 74.5,331.5C 71.7131,332.477 68.7131,332.81 65.5,332.5C 65.5,327.833 65.5,323.167 65.5,318.5C 68.7131,318.19 71.7131,318.523 74.5,319.5 Z"/></g>
<g><path style="opacity:1" fill="#fcfbf8" d="M 74.5,319.5 C 79.3146,321.476 80.4812,324.809 78,329.5C 77.1841,330.823 76.0174,331.489 74.5,331.5C 71.8333,331.5 69.1667,331.5 66.5,331.5C 66.5,327.5 66.5,323.5 66.5,319.5C 69.1667,319.5 71.8333,319.5 74.5,319.5 Z"/></g>
<g><path style="opacity:1" fill="#644626" d="M 220.5,318.5 C 221.822,318.33 222.989,318.663 224,319.5C 224.499,323.486 224.666,327.486 224.5,331.5C 226.857,331.337 229.19,331.503 231.5,332C 233.527,333.396 233.86,335.062 232.5,337C 229.854,337.497 227.187,337.664 224.5,337.5C 224.666,346.839 224.5,356.173 224,365.5C 222.333,366.833 220.667,366.833 219,365.5C 218.5,356.173 218.334,346.839 218.5,337.5C 216.143,337.663 213.81,337.497 211.5,337C 210.167,335.333 210.167,333.667 211.5,332C 213.81,331.503 216.143,331.337 218.5,331.5C 217.975,326.86 218.642,322.527 220.5,318.5 Z"/></g>
<g><path style="opacity:1" fill="#614527" d="M 241.5,319.5 C 247.113,318.079 249.28,320.079 248,325.5C 242.101,327.433 239.935,325.433 241.5,319.5 Z"/></g>
<g><path style="opacity:1" fill="#5f4120" d="M 267.5,313.5 C 275.991,311.797 280.157,315.13 280,323.5C 276.295,325.355 274.129,324.189 273.5,320C 272.167,319.333 270.833,319.333 269.5,320C 268.54,323.73 268.207,327.563 268.5,331.5C 271.85,331.335 275.183,331.502 278.5,332C 280.527,333.396 280.86,335.062 279.5,337C 275.848,337.499 272.182,337.665 268.5,337.5C 268.666,346.839 268.5,356.173 268,365.5C 266.333,366.833 264.667,366.833 263,365.5C 262.5,356.173 262.334,346.839 262.5,337.5C 260.473,337.662 258.473,337.495 256.5,337C 255.167,335.333 255.167,333.667 256.5,332C 258.473,331.505 260.473,331.338 262.5,331.5C 262.334,327.154 262.501,322.821 263,318.5C 264.059,316.341 265.559,314.674 267.5,313.5 Z"/></g>
<g><path style="opacity:1" fill="#614322" d="M 180.5,331.5 C 182.492,331.328 184.158,331.995 185.5,333.5C 193.854,330.007 200.021,332.341 204,340.5C 204.816,349.079 204.649,357.579 203.5,366C 201.888,366.72 200.388,366.554 199,365.5C 198.667,357.5 198.333,349.5 198,341.5C 193.951,336.182 189.951,336.182 186,341.5C 185.667,349.5 185.333,357.5 185,365.5C 183.333,366.833 181.667,366.833 180,365.5C 179.19,354.091 179.357,342.757 180.5,331.5 Z"/></g>
<g><path style="opacity:1" fill="#624323" d="M 408.5,331.5 C 425.555,332.377 432.055,341.043 428,357.5C 422.229,366.201 414.396,368.701 404.5,365C 396.375,359.64 393.542,352.14 396,342.5C 399.122,337.539 403.288,333.872 408.5,331.5 Z"/></g>
<g><path style="opacity:1" fill="#614323" d="M 285.5,332.5 C 287.144,332.286 288.644,332.62 290,333.5C 290.333,340.833 290.667,348.167 291,355.5C 295.167,361.759 299.833,362.092 305,356.5C 305.333,348.833 305.667,341.167 306,333.5C 307.667,332.167 309.333,332.167 311,333.5C 311.667,341.167 311.667,348.833 311,356.5C 308.053,364.721 302.22,367.888 293.5,366C 289.407,363.993 286.573,360.827 285,356.5C 284.2,348.421 284.367,340.421 285.5,332.5 Z"/></g>
<g><path style="opacity:1" fill="#624424" d="M 142.5,332.5 C 144.467,332.261 146.301,332.594 148,333.5C 148.333,341.167 148.667,348.833 149,356.5C 152.958,361.436 157.291,361.769 162,357.5C 163.27,349.603 163.937,341.603 164,333.5C 165.667,332.167 167.333,332.167 169,333.5C 169.667,341.167 169.667,348.833 169,356.5C 163,367.691 155,369.358 145,361.5C 144.138,359.913 143.471,358.246 143,356.5C 142.5,348.507 142.334,340.507 142.5,332.5 Z"/></g>
<g><path style="opacity:1" fill="#5f462b" d="M 242.5,333.5 C 243.585,331.418 245.085,331.084 247,332.5C 247.667,343.5 247.667,354.5 247,365.5C 245.333,366.833 243.667,366.833 242,365.5C 241.175,354.659 241.341,343.992 242.5,333.5 Z"/></g>
<g><path style="opacity:1" fill="#5f3e19" d="M 242.5,333.5 C 243.833,333.5 245.167,333.5 246.5,333.5C 246.5,343.833 246.5,354.167 246.5,364.5C 245.167,364.5 243.833,364.5 242.5,364.5C 242.5,354.167 242.5,343.833 242.5,333.5 Z"/></g>
<g><path style="opacity:1" fill="#fdfcf9" d="M 409.5,337.5 C 420.354,337.518 424.854,342.851 423,353.5C 419.96,359.603 415.126,361.769 408.5,360C 402.092,356.677 399.925,351.511 402,344.5C 403.742,341.254 406.242,338.921 409.5,337.5 Z"/></g>
<g><path style="opacity:1" fill="#fdfcf9" d="M 490.5,337.5 C 501.354,337.518 505.854,342.851 504,353.5C 500.96,359.603 496.126,361.769 489.5,360C 483.092,356.677 480.925,351.511 483,344.5C 484.742,341.254 487.242,338.921 490.5,337.5 Z"/></g>
<g><path style="opacity:1" fill="#fcfbf8" d="M 65.5,338.5 C 70.8437,338.334 76.1771,338.501 81.5,339C 88.053,341.73 90.2196,346.563 88,353.5C 86.8783,355.624 85.3783,357.457 83.5,359C 77.6208,360.41 71.6208,360.91 65.5,360.5C 65.5,353.167 65.5,345.833 65.5,338.5 Z"/></g>
<g><path style="opacity:1" fill="#614322" d="M 113.5,331.5 C 128.645,331.145 135.812,338.478 135,353.5C 130.788,364.357 122.954,368.524 111.5,366C 100.855,359.731 98.0219,350.898 103,339.5C 105.94,335.963 109.44,333.297 113.5,331.5 Z"/></g>
<g><path style="opacity:1" fill="#fcfaf8" d="M 114.5,337.5 C 127.251,338.354 131.418,344.688 127,356.5C 122.375,360.641 117.209,361.474 111.5,359C 106.006,353.873 105.172,348.039 109,341.5C 110.812,340.023 112.645,338.69 114.5,337.5 Z"/></g>
<g><path style="opacity:1" fill="#604121" d="M 527.5,331.5 C 536.536,330.727 540.702,334.727 540,343.5C 539.439,344.022 538.772,344.355 538,344.5C 535.475,342.971 533.642,340.804 532.5,338C 527.516,337.314 525.85,339.314 527.5,344C 532.767,345.193 537.267,347.693 541,351.5C 542.484,364.342 536.984,368.842 524.5,365C 521.817,363.155 520.15,360.655 519.5,357.5C 519.539,355.413 520.539,354.079 522.5,353.5C 524.605,355.262 526.272,357.428 527.5,360C 530.669,360.978 533.503,360.478 536,358.5C 536.825,356.299 536.325,354.466 534.5,353C 529.188,351.928 524.688,349.428 521,345.5C 519.17,338.832 521.337,334.165 527.5,331.5 Z"/></g>
<g><path style="opacity:1" fill="#604222" d="M 448.5,331.5 C 466.779,332.07 473.279,341.07 468,358.5C 461.275,366.756 453.108,368.589 443.5,364C 433.364,354.611 433.031,344.944 442.5,335C 444.727,334.059 446.727,332.892 448.5,331.5 Z"/></g>
<g><path style="opacity:1" fill="#fcfbf8" d="M 449.5,337.5 C 462.444,338.253 466.611,344.587 462,356.5C 456,361.833 450,361.833 444,356.5C 439.478,348.312 441.311,341.979 449.5,337.5 Z"/></g>
</svg>
